<svg width="1024" height="1024" xmlns="http://www.w3.org/2000/svg" class="icon-2">

 <g>
  <title>background</title>
  <rect fill="none" id="canvas_background" height="402" width="582" y="-1" x="-1"/>
 </g>
 <g>
  <title>Layer 1</title>
  <path id="svg_1" d="m432,544l-240,0c-17.67,0 -32,14.33 -32,32s14.33,32 32,32l178.75,0l-233.37,233.38c-12.5,12.5 -12.5,32.75 0,45.25c6.25,6.25 14.44,9.38 22.62,9.38s16.38,-3.12 22.62,-9.38l233.38,-233.38l0,178.75c0,17.67 14.33,32 32,32s32,-14.33 32,-32l0,-240c0,-26.47 -21.53,-48 -48,-48zm454.62,-406.62c-12.5,-12.5 -32.75,-12.5 -45.25,0l-233.37,233.37l0,-178.75c0,-17.67 -14.33,-32 -32,-32s-32,14.33 -32,32l0,240c0,26.47 21.53,48 48,48l240,0c17.67,0 32,-14.33 32,-32s-14.33,-32 -32,-32l-178.75,0l233.38,-233.38c12.49,-12.5 12.49,-32.74 -0.01,-45.24z"/>
 </g>
</svg>