<svg width="1024" height="1024" xmlns="http://www.w3.org/2000/svg" class="icon-1">

 <g>
  <title>background</title>
  <rect fill="none" id="canvas_background" height="402" width="582" y="-1" x="-1"/>
 </g>
 <g>
  <title>Layer 1</title>
  <path id="svg_1" d="m981.33333,682.66667c-25.6,0 -42.66666,17.06666 -42.66666,42.66666l0,192c0,12.8 -8.53334,21.33334 -21.33334,21.33334l-192,0c-25.6,0 -42.66666,17.06666 -42.66666,42.66666s17.06666,42.66667 42.66666,42.66667l192,0c59.73334,0 106.66667,-46.93333 106.66667,-106.66667l0,-192c0,-25.6 -17.06667,-42.66666 -42.66667,-42.66666zm-682.66666,256l-192,0c-12.8,0 -21.33334,-8.53334 -21.33334,-21.33334l0,-192c0,-25.6 -17.06666,-42.66666 -42.66666,-42.66666s-42.66667,17.06666 -42.66667,42.66666l0,192c0,59.73334 46.93333,106.66667 106.66667,106.66667l192,0c25.6,0 42.66666,-17.06667 42.66666,-42.66667s-17.06666,-42.66666 -42.66666,-42.66666zm618.66666,-938.66667l-192,0c-25.6,0 -42.66666,17.06667 -42.66666,42.66667s17.06666,42.66666 42.66666,42.66666l192,0c12.8,0 21.33334,8.53334 21.33334,21.33334l0,192c0,25.6 17.06666,42.66666 42.66666,42.66666s42.66667,-17.06666 42.66667,-42.66666l0,-192c0,-59.73334 -46.93333,-106.66667 -106.66667,-106.66667zm-874.66666,341.33333c25.6,0 42.66666,-17.06666 42.66666,-42.66666l0,-192c0,-12.8 8.53334,-21.33334 21.33334,-21.33334l192,0c25.6,0 42.66666,-17.06666 42.66666,-42.66666s-17.06666,-42.66667 -42.66666,-42.66667l-192,0c-59.73334,0 -106.66667,46.93333 -106.66667,106.66667l0,192c0,25.6 17.06667,42.66666 42.66667,42.66666zm140.8,-64l0,469.33334c0,51.2 42.66666,98.13333 98.13333,98.13333l469.33333,0c51.2,0 98.13334,-42.66667 98.13334,-98.13333l0,-469.33334c0,-51.2 -42.66667,-98.13333 -98.13334,-98.13333l-469.33333,0c-55.46667,4.26667 -98.13333,46.93333 -98.13333,98.13333zm597.33333,0l0,469.33334c0,17.06666 -12.8,34.13333 -34.13333,34.13333l-469.33334,0c-17.06666,0 -34.13333,-12.8 -34.13333,-34.13333l0,-469.33334c0,-17.06666 12.8,-34.13333 34.13333,-34.13333l469.33334,0c17.06666,4.26667 34.13333,17.06667 34.13333,34.13333z"/>
 </g>
</svg>